<?xml version="1.0" encoding="utf-8"?>
<!-- Generator: Adobe Illustrator 22.1.0, SVG Export Plug-In . SVG Version: 6.00 Build 0)  -->
<svg version="1.1" id="Layer_1" xmlns="http://www.w3.org/2000/svg" xmlns:xlink="http://www.w3.org/1999/xlink" x="0px" y="0px"
	 viewBox="0 0 801 235.5" style="enable-background:new 0 0 801 235.5;" xml:space="preserve">
<g>
	<g>
		<rect x="422.1" y="164.6" width="43.6" height="13"/>
		<rect x="70.8" y="164.6" width="305.9" height="13"/>
	</g>
	<g>
		<path d="M271.7,119.9c-0.1-1-0.1-2-0.1-2.8c0-2.4,0.2-4.8,0.6-6.9h-61.2v8.9c0,0.3,0,0.6,0,0.9H271.7z"/>
		<rect x="211.1" y="89.7" width="31.5" height="8.9"/>
		<path d="M295.5,100.1c1.7,2,2.9,4.7,3.7,7.7l13.6-7.7H295.5z"/>
		<rect x="157.1" y="78.7" width="31.3" height="9.4"/>
		<rect x="211.1" y="78.7" width="31.5" height="9.4"/>
		<rect x="157.1" y="89.7" width="31.3" height="8.9"/>
		<path d="M132.9,76.7c-5.7-1.9-11.4-2.6-16.4-2.6c-5.9,0-11.4,0.9-16.4,2.6H132.9z"/>
		<path d="M188.4,120.4H73.2c0.3,3.4,0.9,6.8,1.9,10h31.5c-1.4-2.7-1.5-5.5-1.6-8.1h52v2.9c0,1.6,0.1,3.4,0.2,5.2h34.2
			C188.5,127.7,188.4,123.4,188.4,120.4z"/>
		<rect x="318.2" y="48.8" width="31.5" height="7.4"/>
		<path d="M141,130.5l-8.4-3.5c-0.6,1.3-1.3,2.4-2,3.5H141z"/>
		<path d="M150.2,88.2c-0.7-0.8-1.4-1.5-2.1-2.3c-3.2-3.1-6.7-5.4-10.3-7.1H95.2c-4.8,2.3-9,5.5-12.4,9.4H150.2z"/>
		<path d="M211.1,100.1v9.3h61.3c0.8-3.7,2.2-6.9,4.2-9.3h-33.4c-0.2,0.7-0.5,1.3-0.7,2v-2H211.1z"/>
		<path d="M188.4,110.1H73.5c-0.2,2-0.4,4.2-0.4,6.3c0,1.2,0,2.3,0.1,3.5h115.2V110.1z"/>
		<path d="M108.1,98.6c1.7-2.5,4.5-4.5,9.1-4.5c3.2,0,6.8,1.4,8.9,4.5h30.5c-1.2-3-2.9-6-5.1-8.9H81.6c-2.1,2.7-3.8,5.7-5.2,8.9
			H108.1z"/>
		<path d="M318.2,78.7v8.7c-0.4-0.5-0.9-0.9-1.4-1.4c-3.1-3.2-6.5-5.5-9.8-7.3h-45.7c-3.3,1.7-6.5,4-9.4,7c-0.7,0.8-1.5,1.6-2.1,2.4
			h100v-9.4H318.2z"/>
		<path d="M248.6,89.7c-1.9,2.6-3.5,5.6-4.8,8.9h34.3c2.1-1.8,4.7-2.8,7.9-2.8c3.4,0,6,1,8.1,2.8h21.4l2.8-1.6v1.6h31.5v-8.9H248.6z
			"/>
		<rect x="318.2" y="70.4" width="31.5" height="6.4"/>
		<path d="M318.2,130.7v1.7l-3-1.7h-20.4c-2.1,2.5-5.1,4.5-9.6,4.5c-4.9,0-8-1.9-10-4.5h-67.8c-1.7,1.4-4.1,2.3-7.7,2.3
			c-3.8,0-6.3-0.9-7.9-2.3h-34.5c0.1,2.2,0.4,4.6,0.9,7l-16.7-7h-11.2c-2.9,4.1-6.5,6.4-12.1,6.4c-5.8,0-8.7-2.9-9.4-3.7
			c-0.9-0.9-1.6-1.8-2.1-2.8H75.2c5,16,18.7,28.7,41.4,28.7c18.8,0,32.4-7.4,41.7-21.4c1,4.4,3,8.7,6.7,12.4
			c2.7,2.9,9.3,7.6,21.8,7.8c8.1,0,16.3-2.1,22.1-7.8c2.3-2.1,2.9-3.5,4-5.8v11.6h29.8v-25.4c5,17.3,19.3,28.5,40,28.5
			c18.3,0,28.5-8.1,32.9-12.6c1.1-1.1,2-2.1,2.7-3.1v12.7h31.5v-25.5H318.2z"/>
		<path d="M284.4,73.7c-3.6,0-10.9,0.2-18.5,3h36.7C294.8,73.8,287.7,73.7,284.4,73.7z"/>
		<rect x="318.2" y="100.1" width="31.5" height="9.3"/>
		<rect x="318.2" y="59.2" width="31.5" height="8.2"/>
		<rect x="318.2" y="110.1" width="31.5" height="9.8"/>
		<path d="M271.8,120.4h-60.7c-0.1,3.3-0.6,7.4-3.3,10H275C272.9,127.5,272.1,123.7,271.8,120.4z"/>
		<path d="M188.4,109.4v-9.3H127c0.3,0.6,0.5,1.3,0.7,2.1c0.3,1.2,0.3,2.4,0.5,3.7h-22.8c0.3-1.4,0.8-3.6,1.8-5.7H75.9
			c-1.1,2.9-1.8,6-2.3,9.3H188.4z"/>
		<path d="M299.2,121.9c-0.7,2.1-1.9,5.6-4.2,8.5h19.8L299.2,121.9z"/>
		<rect x="318.2" y="120.4" width="31.5" height="10"/>
	</g>
	<g>
		<g>
			<path d="M495.4,82.2H511c2.8,0,10.8-0.2,14.7,6.5c0.6,1,1.9,3.4,1.9,7.5c0,2.1-0.4,4.3-1.2,6.3c-0.7,1.6-2,3.8-5.1,5.5
				c-3,1.6-5.7,1.8-8.3,1.8h-17.5V82.2z M505,103.5h4.3c3.4,0,5.3-0.6,6.4-1.6c1.3-1.2,2.2-3.5,2.2-5.8c0-2.6-1.1-4.6-2.5-5.7
				c-1.7-1.4-4.1-1.6-5.9-1.6H505V103.5z"/>
			<path d="M530.9,82.2h20.2c2.4,0,5.4,0.1,7.7,1.8c2,1.5,3.2,4.2,3.2,7c0,2-0.6,3.9-1.8,5.2c-1.6,1.9-3.4,2.3-4.6,2.6l6.9,11h-10.9
				l-5.7-10h-5.3v10h-9.9V82.2z M540.8,93.5h7.4c1.5,0,4,0,4-2.5c0-0.6-0.2-1.3-0.7-1.8c-0.8-0.7-1.8-0.8-2.5-0.8h-8.2V93.5z"/>
			<path d="M565.8,82.2h9.8v15.6c0,1.7,0.2,3,0.8,4c1.2,2.1,3.7,2.7,5.7,2.7c2.6,0,4.1-0.9,4.7-1.5c1.7-1.6,1.7-4.1,1.7-5.4V82.2
				h9.8v14.4c0,3.2-0.1,6.6-1.6,9c-3,4.7-10.3,5.1-14.6,5.1c-6.1,0-9.6-0.9-11.7-2.1c-4.3-2.1-4.7-6.5-4.7-8.7V82.2z"/>
			<path d="M603.7,82.2h13.1l6.9,18l6.9-18h13v27.5H634V92.1l-6.5,17.6h-7.6l-6.4-17.6v17.6h-9.7V82.2z"/>
			<path d="M502.4,142c0,4.2,2.5,8.5,8.1,8.5c2.1,0,4.1-0.7,5.6-1.8c1.3-1.1,1.7-2,2-2.8l9.4,1c-0.3,1-0.7,2-1.6,3.4
				c-3.2,5-9.6,6.4-15.6,6.4c-2.7,0-5.3-0.2-7.9-1c-5.7-1.8-10.3-6.1-10.3-13.7c0-5.3,2.8-15,18.5-15c13.4,0,15.5,6.1,16.4,8.7
				l-9.1,1.6c-0.4-0.8-0.9-1.8-2.3-2.8c-1.5-0.9-3.3-1.2-4.7-1.2C506.4,133.4,502.4,136.1,502.4,142z"/>
			<path d="M556.7,128.8c6.3,2.6,8.5,8.3,8.5,13.1c0,2.6-0.6,5.2-2,7.5c-0.9,1.4-2,2.7-3.3,3.7c-3.7,3-8.2,3.7-13.2,3.7
				c-9.6,0-13.5-3.4-15.6-6.2c-1.9-2.5-2.6-5.1-2.6-8.3c0-3.1,0.8-6.1,2.5-8.6c3.9-5.5,10.4-6.4,15.3-6.4
				C549.8,127.2,553.5,127.5,556.7,128.8z M538.7,142c0,4.3,2.3,8.7,8.3,8.7c1.4,0,2.8-0.2,4-0.8c3-1.5,4.1-5.1,4.1-7.9
				c0-3-1.3-8.5-8.1-8.6C540.8,133.3,538.7,138.2,538.7,142z"/>
			<path d="M568.7,128.2h8.2l8.5,9.3c2.4,2.6,2.9,3.2,4.9,5.8c-0.2-3.8-0.2-5.1-0.2-8.8v-6.2h9.7v27.5h-8.2l-10.1-11.4
				c-1.4-1.6-1.9-2.2-3.1-3.8c0.1,4.8,0.1,5.8,0.2,9.3v5.9h-9.8V128.2z"/>
			<path d="M613.1,135.3c0,0.4,0.1,0.7,0.3,1c0.7,0.9,3.4,1.5,5,1.8c1.9,0.4,3.8,0.8,5.7,1.2c1.2,0.2,2.4,0.5,3.5,1
				c3.7,1.4,4.8,4.1,4.8,6.6c0,1.8-0.6,3.5-1.4,4.7c-2.3,3.5-6.9,5-14.4,5c-2.8,0-8.3-0.2-11.5-3.1c-2.4-2.1-2.7-4.6-2.9-5.9
				l9.7-0.3c0.4,1.8,2.2,3.2,6.1,3.2c1,0,2.5-0.1,3.4-0.7c0.7-0.4,1.4-1.2,1.4-2.1c0-1.3-1.1-1.8-1.8-2.1c-1.2-0.4-7.4-1.5-8.8-1.8
				c-1.1-0.2-2.1-0.5-3.2-0.9c-1.1-0.4-5.5-2-5.5-7c0-2.1,0.9-4,2.2-5.4c3.1-3.2,8.6-3.5,11.7-3.5c3.4,0,6.7,0.5,8.4,1.1
				c5.1,1.6,5.8,5.5,6.1,7l-9.7,0.5c-0.2-0.9-0.7-2.5-4.8-2.5C616.2,133.1,613.1,133.3,613.1,135.3z"/>
			<path d="M662.6,128.8c6.3,2.6,8.5,8.3,8.5,13.1c0,2.6-0.6,5.2-2,7.5c-0.9,1.4-1.9,2.7-3.3,3.7c-3.7,3-8.2,3.7-13.2,3.7
				c-9.6,0-13.5-3.4-15.6-6.2c-1.9-2.5-2.6-5.1-2.6-8.3c0-3.1,0.8-6.1,2.5-8.6c3.9-5.5,10.4-6.4,15.3-6.4
				C655.8,127.2,659.5,127.5,662.6,128.8z M644.7,142c0,4.3,2.3,8.7,8.3,8.7c1.4,0,2.8-0.2,4-0.8c3-1.5,4.1-5.1,4.1-7.9
				c0-3-1.3-8.5-8.1-8.6C646.7,133.3,644.7,138.2,644.7,142z"/>
			<path d="M684.5,128.2v20.8h14v6.7h-23.9v-27.5H684.5z"/>
			<path d="M729.8,128.2v6.2h-19.1v4.5h17.7v6.2h-17.7v4.4h19.6v6.2h-29.4v-27.5H729.8z"/>
		</g>
	</g>
	<g>
		<rect x="351.4" y="120.4" width="31.3" height="10"/>
		<rect x="351.4" y="100.1" width="31.3" height="9.3"/>
		<rect x="351.4" y="110.1" width="31.3" height="9.8"/>
		<rect x="351.4" y="89.7" width="31.3" height="8.9"/>
		<rect x="351.4" y="130.7" width="31.3" height="25.5"/>
		<rect x="351.4" y="78.7" width="31.3" height="9.4"/>
	</g>
	<g>
		<rect x="351.4" y="59.2" width="31.3" height="8.2"/>
		<rect x="351.4" y="48.8" width="31.3" height="7.4"/>
	</g>
	<g>
		<path d="M417.2,130.5c-0.4-0.8-0.8-1.6-1.2-2.6c-0.8-2.4-1.2-4.9-1.3-7.5h-30.5v10H417.2z"/>
		<path d="M414.7,119.9c0-0.9,0-1.9,0-2.8c0-1.9,0-4.4,0.4-6.9h-30.8v9.8H414.7z"/>
		<path d="M439.3,117.7c0,0.8,0,1.5-0.1,2.2h30.9c0-0.9,0.1-1.8,0.1-2.7c0-2.4-0.1-4.7-0.4-7.1h-31
			C439.3,112.9,439.3,115.7,439.3,117.7z"/>
		<path d="M414.8,83.4v-4.7h-30.6v9.4h78.1c-2.7-3.9-6.3-7.2-10.7-9.4h-31.1C417.6,80.4,415.9,82.3,414.8,83.4z"/>
		<path d="M384.2,100.1v9.3h31c0.6-3,1.7-5.9,4-8.1c0.4-0.4,0.9-0.8,1.4-1.2H384.2z"/>
		<path d="M470.1,120.4h-30.9c-0.3,4.3-1.2,7.6-2.6,10h32.2C469.5,127.3,470,123.9,470.1,120.4z"/>
		<path d="M425.1,76.7h21.5c-3.2-1-6.8-1.5-10.8-1.5C431.4,75.2,428,75.8,425.1,76.7z"/>
		<path d="M436.5,130.7c-0.5,0.8-1,1.4-1.5,2c-2,2.1-5,3.3-8.1,3.3c-1.1,0-6.2,0-9.5-5.4h-33.1v54.1h30.9v-33.9
			c2.6,2.4,7.6,7.3,20.4,7.3c18.8,0,29.6-11.3,33.3-27.4H436.5z"/>
		<path d="M384.2,89.7v8.9h39.5c1.3-0.4,2.6-0.6,3.9-0.5c1.2,0,2.3,0.2,3.3,0.5h36.6c-1-3.2-2.4-6.2-4.1-8.9H384.2z"/>
		<path d="M433.8,100.1c2.8,2.1,4.2,5.7,4.9,9.3h31.1c-0.4-3.2-1-6.3-1.9-9.3H433.8z"/>
	</g>
</g>
</svg>
