<?xml version="1.0" encoding="utf-8"?>
<!-- Generator: Adobe Illustrator 23.0.3, SVG Export Plug-In . SVG Version: 6.00 Build 0)  -->
<svg version="1.1" id="Layer_1" xmlns="http://www.w3.org/2000/svg" xmlns:xlink="http://www.w3.org/1999/xlink" x="0px" y="0px"
	 viewBox="0 0 250 51.5" style="enable-background:new 0 0 250 51.5; fill:#ffce55;" xml:space="preserve">
<g>
	<g>
		<rect x="133.2" y="43.9" width="16.5" height="4.9"/>
		<rect y="43.9" width="116" height="4.9"/>
	</g>
	<g>
		<path d="M76.2,27c0-0.4,0-0.8,0-1.1c0-0.9,0.1-1.8,0.2-2.6H53.1v3.4c0,0.1,0,0.2,0,0.3L76.2,27L76.2,27z"/>
		<rect x="53.2" y="15.5" width="11.9" height="3.4"/>
		<path d="M85.2,19.4c0.6,0.8,1.1,1.8,1.4,2.9l5.2-2.9H85.2z"/>
		<rect x="32.7" y="11.3" width="11.9" height="3.6"/>
		<rect x="53.2" y="11.3" width="11.9" height="3.6"/>
		<rect x="32.7" y="15.5" width="11.9" height="3.4"/>
		<path d="M23.5,10.6c-2.2-0.7-4.3-1-6.2-1c-2.2,0-4.3,0.3-6.2,1H23.5z"/>
		<path d="M44.6,27.1H0.9c0.1,1.3,0.3,2.6,0.7,3.8h11.9c-0.5-1-0.6-2.1-0.6-3.1h19.7V29c0,0.6,0,1.3,0.1,2h13
			C44.6,29.9,44.6,28.3,44.6,27.1z"/>
		<rect x="93.8" width="11.9" height="2.8"/>
		<path d="M26.6,31l-3.2-1.3c-0.2,0.5-0.5,0.9-0.8,1.3H26.6z"/>
		<path d="M30.1,14.9c-0.3-0.3-0.5-0.6-0.8-0.9c-1.2-1.2-2.5-2-3.9-2.7H9.2c-1.8,0.9-3.4,2.1-4.7,3.6H30.1z"/>
		<path d="M53.2,19.4V23h23.2c0.3-1.4,0.8-2.6,1.6-3.5H65.4c-0.1,0.3-0.2,0.5-0.3,0.8v-0.8H53.2z"/>
		<path d="M44.6,23.2H1c-0.1,0.8-0.2,1.6-0.2,2.4c0,0.5,0,0.9,0,1.3h43.7V23.2z"/>
		<path d="M14.1,18.9c0.6-0.9,1.7-1.7,3.4-1.7c1.2,0,2.6,0.5,3.4,1.7h11.6c-0.5-1.1-1.1-2.3-1.9-3.4H4.1c-0.8,1-1.4,2.2-2,3.4H14.1z
			"/>
		<path d="M93.8,11.3v3.3c-0.2-0.2-0.3-0.3-0.5-0.5c-1.2-1.2-2.5-2.1-3.7-2.8H72.2C71,12,69.7,12.9,68.7,14
			c-0.3,0.3-0.6,0.6-0.8,0.9h37.9v-3.6C105.8,11.3,93.8,11.3,93.8,11.3z"/>
		<path d="M67.4,15.5c-0.7,1-1.3,2.1-1.8,3.4h13c0.8-0.7,1.8-1.1,3-1.1c1.3,0,2.3,0.4,3.1,1.1h8.1l1.1-0.6v0.6h11.9v-3.4H67.4z"/>
		<rect x="93.8" y="8.2" width="11.9" height="2.4"/>
		<path d="M93.8,31v0.6L92.6,31h-7.7c-0.8,0.9-1.9,1.7-3.6,1.7c-1.9,0-3-0.7-3.8-1.7H51.8c-0.6,0.5-1.6,0.9-2.9,0.9
			c-1.4,0-2.4-0.3-3-0.9H32.8c0,0.8,0.2,1.7,0.3,2.7L26.8,31h-4.2c-1.1,1.6-2.5,2.4-4.6,2.4c-2.2,0-3.3-1.1-3.6-1.4
			c-0.3-0.3-0.6-0.7-0.8-1.1H1.7c1.9,6.1,7.1,10.9,15.7,10.9c7.1,0,12.3-2.8,15.8-8.1c0.4,1.7,1.1,3.3,2.5,4.7c1,1.1,3.5,2.9,8.3,3
			c3.1,0,6.2-0.8,8.4-3c0.9-0.8,1.1-1.3,1.5-2.2v4.4h11.3V31c1.9,6.6,7.3,10.8,15.2,10.8c6.9,0,10.8-3.1,12.5-4.8
			c0.4-0.4,0.8-0.8,1-1.2v4.8h11.9V31L93.8,31L93.8,31z"/>
		<path d="M81,9.4c-1.4,0-4.1,0.1-7,1.1h13.9C84.9,9.5,82.2,9.4,81,9.4z"/>
		<rect x="93.8" y="19.4" width="11.9" height="3.5"/>
		<rect x="93.8" y="3.9" width="11.9" height="3.1"/>
		<rect x="93.8" y="23.2" width="11.9" height="3.7"/>
		<path d="M76.2,27.1h-23c0,1.3-0.2,2.8-1.3,3.8h25.5C76.6,29.8,76.3,28.4,76.2,27.1z"/>
		<path d="M44.6,23v-3.5H21.3c0.1,0.2,0.2,0.5,0.3,0.8c0.1,0.5,0.1,0.9,0.2,1.4h-8.6c0.1-0.5,0.3-1.4,0.7-2.2H1.9
			c-0.4,1.1-0.7,2.3-0.9,3.5L44.6,23L44.6,23z"/>
		<path d="M86.6,27.7c-0.3,0.8-0.7,2.1-1.6,3.2h7.5L86.6,27.7z"/>
		<rect x="93.8" y="27.1" width="11.9" height="3.8"/>
	</g>
	<g>
		<g>
			<path d="M161,12.7h5.9c1.1,0,4.1-0.1,5.6,2.5c0.2,0.4,0.7,1.3,0.7,2.8c0,0.8-0.2,1.6-0.5,2.4c-0.3,0.6-0.8,1.4-1.9,2.1
				c-1.1,0.6-2.2,0.7-3.1,0.7H161L161,12.7L161,12.7z M164.6,20.7h1.6c1.3,0,2-0.2,2.4-0.6c0.5-0.5,0.8-1.3,0.8-2.2
				c0-1-0.4-1.7-0.9-2.2c-0.6-0.5-1.6-0.6-2.2-0.6h-1.7V20.7z"/>
			<path d="M174.4,12.7h7.7c0.9,0,2,0,2.9,0.7c0.8,0.6,1.2,1.6,1.2,2.7c0,0.8-0.2,1.5-0.7,2c-0.6,0.7-1.3,0.9-1.7,1l2.6,4.2h-4.1
				l-2.2-3.8h-2v3.8h-3.8L174.4,12.7L174.4,12.7z M178.2,16.9h2.8c0.6,0,1.5,0,1.5-0.9c0-0.2-0.1-0.5-0.3-0.7
				c-0.3-0.3-0.7-0.3-0.9-0.3h-3.1V16.9z"/>
			<path d="M187.6,12.7h3.7v5.9c0,0.6,0.1,1.1,0.3,1.5c0.5,0.8,1.4,1,2.2,1c1,0,1.6-0.3,1.8-0.6c0.6-0.6,0.6-1.6,0.6-2v-5.8h3.7v5.5
				c0,1.2,0,2.5-0.6,3.4c-1.1,1.8-3.9,1.9-5.5,1.9c-2.3,0-3.6-0.3-4.4-0.8c-1.6-0.8-1.8-2.5-1.8-3.3L187.6,12.7L187.6,12.7z"/>
			<path d="M202,12.7h5l2.6,6.8l2.6-6.8h4.9v10.4h-3.6v-6.7l-2.5,6.7h-2.9l-2.4-6.7v6.7H202L202,12.7L202,12.7z"/>
			<path d="M163.6,35.3c0,1.6,0.9,3.2,3.1,3.2c0.8,0,1.6-0.3,2.1-0.7c0.5-0.4,0.6-0.8,0.8-1.1l3.6,0.4c-0.1,0.4-0.3,0.8-0.6,1.3
				c-1.2,1.9-3.6,2.4-5.9,2.4c-1,0-2-0.1-3-0.4c-2.2-0.7-3.9-2.3-3.9-5.2c0-2,1.1-5.7,7-5.7c5.1,0,5.9,2.3,6.2,3.3l-3.4,0.6
				c-0.2-0.3-0.3-0.7-0.9-1.1c-0.6-0.3-1.3-0.5-1.8-0.5C165.1,32.1,163.6,33.1,163.6,35.3z"/>
			<path d="M184.2,30.3c2.4,1,3.2,3.1,3.2,5c0,1-0.2,2-0.8,2.8c-0.3,0.5-0.8,1-1.3,1.4c-1.4,1.1-3.1,1.4-5,1.4
				c-3.6,0-5.1-1.3-5.9-2.4c-0.7-0.9-1-1.9-1-3.1c0-1.2,0.3-2.3,0.9-3.3c1.5-2.1,3.9-2.4,5.8-2.4C181.6,29.7,183,29.8,184.2,30.3z
				 M177.4,35.3c0,1.6,0.9,3.3,3.1,3.3c0.5,0,1.1-0.1,1.5-0.3c1.1-0.6,1.6-1.9,1.6-3c0-1.1-0.5-3.2-3.1-3.3
				C178.2,32,177.4,33.9,177.4,35.3z"/>
			<path d="M188.7,30.1h3.1l3.2,3.5c0.9,1,1.1,1.2,1.9,2.2c-0.1-1.4-0.1-1.9-0.1-3.3v-2.4h3.7v10.4h-3.1l-3.8-4.3
				c-0.5-0.6-0.7-0.8-1.2-1.4c0,1.8,0,2.2,0.1,3.5v2.2h-3.7L188.7,30.1L188.7,30.1z"/>
			<path d="M205.6,32.8c0,0.2,0,0.3,0.1,0.4c0.3,0.3,1.3,0.6,1.9,0.7c0.7,0.2,1.4,0.3,2.2,0.5c0.5,0.1,0.9,0.2,1.3,0.4
				c1.4,0.5,1.8,1.6,1.8,2.5c0,0.7-0.2,1.3-0.5,1.8c-0.9,1.3-2.6,1.9-5.5,1.9c-1.1,0-3.1-0.1-4.4-1.2c-0.9-0.8-1-1.7-1.1-2.2
				l3.7-0.1c0.2,0.7,0.8,1.2,2.3,1.2c0.4,0,0.9,0,1.3-0.3c0.3-0.2,0.5-0.5,0.5-0.8c0-0.5-0.4-0.7-0.7-0.8c-0.5-0.2-2.8-0.6-3.3-0.7
				c-0.4-0.1-0.8-0.2-1.2-0.3c-0.4-0.2-2.1-0.8-2.1-2.7c0-0.8,0.3-1.5,0.8-2c1.2-1.2,3.3-1.3,4.4-1.3c1.3,0,2.5,0.2,3.2,0.4
				c1.9,0.6,2.2,2.1,2.3,2.7l-3.7,0.2c-0.1-0.3-0.3-0.9-1.8-0.9C206.7,32,205.6,32,205.6,32.8z"/>
			<path d="M224.3,30.3c2.4,1,3.2,3.1,3.2,5c0,1-0.2,2-0.8,2.8c-0.3,0.5-0.7,1-1.3,1.4c-1.4,1.1-3.1,1.4-5,1.4
				c-3.6,0-5.1-1.3-5.9-2.4c-0.7-0.9-1-1.9-1-3.1c0-1.2,0.3-2.3,0.9-3.3c1.5-2.1,3.9-2.4,5.8-2.4C221.8,29.7,223.2,29.8,224.3,30.3z
				 M217.6,35.3c0,1.6,0.9,3.3,3.1,3.3c0.5,0,1.1-0.1,1.5-0.3c1.1-0.6,1.6-1.9,1.6-3c0-1.1-0.5-3.2-3.1-3.3
				C218.3,32,217.6,33.9,217.6,35.3z"/>
			<path d="M232.6,30.1V38h5.3v2.5h-9.1V30.1H232.6z"/>
			<path d="M249.8,30.1v2.4h-7.2v1.7h6.7v2.4h-6.7v1.7h7.4v2.4h-11.1V30.1L249.8,30.1L249.8,30.1z"/>
		</g>
	</g>
	<g>
		<rect x="106.4" y="27.1" width="11.9" height="3.8"/>
		<rect x="106.4" y="19.4" width="11.9" height="3.5"/>
		<rect x="106.4" y="23.2" width="11.9" height="3.7"/>
		<rect x="106.4" y="15.5" width="11.9" height="3.4"/>
		<rect x="106.4" y="31" width="11.9" height="9.7"/>
		<rect x="106.4" y="11.3" width="11.9" height="3.6"/>
	</g>
	<g>
		<rect x="106.4" y="3.9" width="11.9" height="3.1"/>
		<rect x="106.4" width="11.9" height="2.8"/>
	</g>
	<g>
		<path d="M131.3,31c-0.2-0.3-0.3-0.6-0.5-1c-0.3-0.9-0.5-1.9-0.5-2.8h-11.6v3.8L131.3,31L131.3,31z"/>
		<path d="M130.4,27c0-0.3,0-0.7,0-1.1c0-0.7,0-1.7,0.2-2.6h-11.7V27L130.4,27L130.4,27z"/>
		<path d="M139.7,26.1c0,0.3,0,0.6,0,0.8h11.7c0-0.3,0-0.7,0-1c0-0.9,0-1.8-0.2-2.7h-11.8C139.7,24.3,139.7,25.4,139.7,26.1z"/>
		<path d="M130.4,13.1v-1.8h-11.6v3.6h29.6c-1-1.5-2.4-2.7-4.1-3.6h-11.8C131.5,12,130.8,12.7,130.4,13.1z"/>
		<path d="M118.8,19.4V23h11.8c0.2-1.1,0.6-2.2,1.5-3.1c0.2-0.2,0.3-0.3,0.5-0.5C132.6,19.4,118.8,19.4,118.8,19.4z"/>
		<path d="M151.4,27.1h-11.7c-0.1,1.6-0.5,2.9-1,3.8h12.2C151.1,29.8,151.3,28.5,151.4,27.1z"/>
		<path d="M134.3,10.6h8.2c-1.2-0.4-2.6-0.6-4.1-0.6C136.7,10,135.4,10.2,134.3,10.6z"/>
		<path d="M138.6,31c-0.2,0.3-0.4,0.5-0.6,0.8c-0.8,0.8-1.9,1.3-3.1,1.3c-0.4,0-2.4,0-3.6-2h-12.5v20.5h11.7V38.7
			c1,0.9,2.9,2.8,7.7,2.8c7.1,0,11.2-4.3,12.6-10.4L138.6,31L138.6,31z"/>
		<path d="M118.8,15.5v3.4h15c0.5-0.2,1-0.2,1.5-0.2c0.5,0,0.9,0.1,1.3,0.2h13.9c-0.4-1.2-0.9-2.4-1.6-3.4H118.8z"/>
		<path d="M137.6,19.4c1.1,0.8,1.6,2.2,1.9,3.5h11.8c-0.2-1.2-0.4-2.4-0.7-3.5H137.6z"/>
	</g>
</g>
</svg>
