<?xml version="1.0" encoding="UTF-8"?>
<svg enable-background="new 0 0 250 51.5" fill="#ffce55" version="1.1" viewBox="0 0 250 51.5" xml:space="preserve" xmlns="http://www.w3.org/2000/svg">
		<rect x="133.2" y="43.9" width="16.5" height="4.9"/>
		<rect y="43.9" width="116" height="4.9"/>
		<path d="m76.2 27v-1.1c0-0.9 0.1-1.8 0.2-2.6h-23.3v3.4 0.3h23.1z"/>
		<rect x="53.2" y="15.5" width="11.9" height="3.4"/>
		<path d="m85.2 19.4c0.6 0.8 1.1 1.8 1.4 2.9l5.2-2.9h-6.6z"/>
		<rect x="32.7" y="11.3" width="11.9" height="3.6"/>
		<rect x="53.2" y="11.3" width="11.9" height="3.6"/>
		<rect x="32.7" y="15.5" width="11.9" height="3.4"/>
		<path d="m23.5 10.6c-2.2-0.7-4.3-1-6.2-1-2.2 0-4.3 0.3-6.2 1h12.4z"/>
		<path d="m44.6 27.1h-43.7c0.1 1.3 0.3 2.6 0.7 3.8h11.9c-0.5-1-0.6-2.1-0.6-3.1h19.7v1.2c0 0.6 0 1.3 0.1 2h13c-1.1-1.1-1.1-2.7-1.1-3.9z"/>
		<rect x="93.8" width="11.9" height="2.8"/>
		<path d="m26.6 31l-3.2-1.3c-0.2 0.5-0.5 0.9-0.8 1.3h4z"/>
		<path d="M30.1,14.9c-0.3-0.3-0.5-0.6-0.8-0.9c-1.2-1.2-2.5-2-3.9-2.7H9.2c-1.8,0.9-3.4,2.1-4.7,3.6H30.1z"/>
		<path d="M53.2,19.4V23h23.2c0.3-1.4,0.8-2.6,1.6-3.5H65.4c-0.1,0.3-0.2,0.5-0.3,0.8v-0.8H53.2z"/>
		<path d="m44.6 23.2h-43.6c-0.1 0.8-0.2 1.6-0.2 2.4v1.3h43.7v-3.7z"/>
		<path d="m14.1 18.9c0.6-0.9 1.7-1.7 3.4-1.7 1.2 0 2.6 0.5 3.4 1.7h11.6c-0.5-1.1-1.1-2.3-1.9-3.4h-26.5c-0.8 1-1.4 2.2-2 3.4h12z"/>
		<path d="m93.8 11.3v3.3l-0.5-0.5c-1.2-1.2-2.5-2.1-3.7-2.8h-17.4c-1.2 0.7-2.5 1.6-3.5 2.7-0.3 0.3-0.6 0.6-0.8 0.9h37.9v-3.6h-12z"/>
		<path d="M67.4,15.5c-0.7,1-1.3,2.1-1.8,3.4h13c0.8-0.7,1.8-1.1,3-1.1c1.3,0,2.3,0.4,3.1,1.1h8.1l1.1-0.6v0.6h11.9v-3.4H67.4z"/>
		<rect x="93.8" y="8.2" width="11.9" height="2.4"/>
		<path d="m93.8 31v0.6l-1.2-0.6h-7.7c-0.8 0.9-1.9 1.7-3.6 1.7-1.9 0-3-0.7-3.8-1.7h-25.7c-0.6 0.5-1.6 0.9-2.9 0.9-1.4 0-2.4-0.3-3-0.9h-13.1c0 0.8 0.2 1.7 0.3 2.7l-6.3-2.7h-4.2c-1.1 1.6-2.5 2.4-4.6 2.4-2.2 0-3.3-1.1-3.6-1.4s-0.6-0.7-0.8-1.1h-11.9c1.9 6.1 7.1 10.9 15.7 10.9 7.1 0 12.3-2.8 15.8-8.1 0.4 1.7 1.1 3.3 2.5 4.7 1 1.1 3.5 2.9 8.3 3 3.1 0 6.2-0.8 8.4-3 0.9-0.8 1.1-1.3 1.5-2.2v4.4h11.3v-9.6c1.9 6.6 7.3 10.8 15.2 10.8 6.9 0 10.8-3.1 12.5-4.8 0.4-0.4 0.8-0.8 1-1.2v4.8h11.9v-9.6h-12z"/>
		<path d="m81 9.4c-1.4 0-4.1 0.1-7 1.1h13.9c-3-1-5.7-1.1-6.9-1.1z"/>
		<rect x="93.8" y="19.4" width="11.9" height="3.5"/>
		<rect x="93.8" y="3.9" width="11.9" height="3.1"/>
		<rect x="93.8" y="23.2" width="11.9" height="3.7"/>
		<path d="m76.2 27.1h-23c0 1.3-0.2 2.8-1.3 3.8h25.5c-0.8-1.1-1.1-2.5-1.2-3.8z"/>
		<path d="m44.6 23v-3.5h-23.3c0.1 0.2 0.2 0.5 0.3 0.8 0.1 0.5 0.1 0.9 0.2 1.4h-8.6c0.1-0.5 0.3-1.4 0.7-2.2h-12c-0.4 1.1-0.7 2.3-0.9 3.5h43.6z"/>
		<path d="m86.6 27.7c-0.3 0.8-0.7 2.1-1.6 3.2h7.5l-5.9-3.2z"/>
		<rect x="93.8" y="27.1" width="11.9" height="3.8"/>
			<path d="m161 12.7h5.9c1.1 0 4.1-0.1 5.6 2.5 0.2 0.4 0.7 1.3 0.7 2.8 0 0.8-0.2 1.6-0.5 2.4-0.3 0.6-0.8 1.4-1.9 2.1-1.1 0.6-2.2 0.7-3.1 0.7h-6.7v-10.5zm3.6 8h1.6c1.3 0 2-0.2 2.4-0.6 0.5-0.5 0.8-1.3 0.8-2.2 0-1-0.4-1.7-0.9-2.2-0.6-0.5-1.6-0.6-2.2-0.6h-1.7v5.6z"/>
			<path d="m174.4 12.7h7.7c0.9 0 2 0 2.9 0.7 0.8 0.6 1.2 1.6 1.2 2.7 0 0.8-0.2 1.5-0.7 2-0.6 0.7-1.3 0.9-1.7 1l2.6 4.2h-4.1l-2.2-3.8h-2v3.8h-3.8l0.1-10.6zm3.8 4.2h2.8c0.6 0 1.5 0 1.5-0.9 0-0.2-0.1-0.5-0.3-0.7-0.3-0.3-0.7-0.3-0.9-0.3h-3.1v1.9z"/>
			<path d="m187.6 12.7h3.7v5.9c0 0.6 0.1 1.1 0.3 1.5 0.5 0.8 1.4 1 2.2 1 1 0 1.6-0.3 1.8-0.6 0.6-0.6 0.6-1.6 0.6-2v-5.8h3.7v5.5c0 1.2 0 2.5-0.6 3.4-1.1 1.8-3.9 1.9-5.5 1.9-2.3 0-3.6-0.3-4.4-0.8-1.6-0.8-1.8-2.5-1.8-3.3v-6.7z"/>
			<path d="m202 12.7h5l2.6 6.8 2.6-6.8h4.9v10.4h-3.6v-6.7l-2.5 6.7h-2.9l-2.4-6.7v6.7h-3.7v-10.4z"/>
			<path d="m163.6 35.3c0 1.6 0.9 3.2 3.1 3.2 0.8 0 1.6-0.3 2.1-0.7s0.6-0.8 0.8-1.1l3.6 0.4c-0.1 0.4-0.3 0.8-0.6 1.3-1.2 1.9-3.6 2.4-5.9 2.4-1 0-2-0.1-3-0.4-2.2-0.7-3.9-2.3-3.9-5.2 0-2 1.1-5.7 7-5.7 5.1 0 5.9 2.3 6.2 3.3l-3.4 0.6c-0.2-0.3-0.3-0.7-0.9-1.1-0.6-0.3-1.3-0.5-1.8-0.5-1.8 0.3-3.3 1.3-3.3 3.5z"/>
			<path d="m184.2 30.3c2.4 1 3.2 3.1 3.2 5 0 1-0.2 2-0.8 2.8-0.3 0.5-0.8 1-1.3 1.4-1.4 1.1-3.1 1.4-5 1.4-3.6 0-5.1-1.3-5.9-2.4-0.7-0.9-1-1.9-1-3.1s0.3-2.3 0.9-3.3c1.5-2.1 3.9-2.4 5.8-2.4 1.5 0 2.9 0.1 4.1 0.6zm-6.8 5c0 1.6 0.9 3.3 3.1 3.3 0.5 0 1.1-0.1 1.5-0.3 1.1-0.6 1.6-1.9 1.6-3s-0.5-3.2-3.1-3.3c-2.3 0-3.1 1.9-3.1 3.3z"/>
			<path d="m188.7 30.1h3.1l3.2 3.5c0.9 1 1.1 1.2 1.9 2.2-0.1-1.4-0.1-1.9-0.1-3.3v-2.4h3.7v10.4h-3.1l-3.8-4.3c-0.5-0.6-0.7-0.8-1.2-1.4 0 1.8 0 2.2 0.1 3.5v2.2h-3.7l-0.1-10.4z"/>
			<path d="m205.6 32.8c0 0.2 0 0.3 0.1 0.4 0.3 0.3 1.3 0.6 1.9 0.7 0.7 0.2 1.4 0.3 2.2 0.5 0.5 0.1 0.9 0.2 1.3 0.4 1.4 0.5 1.8 1.6 1.8 2.5 0 0.7-0.2 1.3-0.5 1.8-0.9 1.3-2.6 1.9-5.5 1.9-1.1 0-3.1-0.1-4.4-1.2-0.9-0.8-1-1.7-1.1-2.2l3.7-0.1c0.2 0.7 0.8 1.2 2.3 1.2 0.4 0 0.9 0 1.3-0.3 0.3-0.2 0.5-0.5 0.5-0.8 0-0.5-0.4-0.7-0.7-0.8-0.5-0.2-2.8-0.6-3.3-0.7l-1.2-0.3c-0.4-0.2-2.1-0.8-2.1-2.7 0-0.8 0.3-1.5 0.8-2 1.2-1.2 3.3-1.3 4.4-1.3 1.3 0 2.5 0.2 3.2 0.4 1.9 0.6 2.2 2.1 2.3 2.7l-3.7 0.2c-0.1-0.3-0.3-0.9-1.8-0.9-0.4-0.2-1.5-0.2-1.5 0.6z"/>
			<path d="m224.3 30.3c2.4 1 3.2 3.1 3.2 5 0 1-0.2 2-0.8 2.8-0.3 0.5-0.7 1-1.3 1.4-1.4 1.1-3.1 1.4-5 1.4-3.6 0-5.1-1.3-5.9-2.4-0.7-0.9-1-1.9-1-3.1s0.3-2.3 0.9-3.3c1.5-2.1 3.9-2.4 5.8-2.4 1.6 0 3 0.1 4.1 0.6zm-6.7 5c0 1.6 0.9 3.3 3.1 3.3 0.5 0 1.1-0.1 1.5-0.3 1.1-0.6 1.6-1.9 1.6-3s-0.5-3.2-3.1-3.3c-2.4 0-3.1 1.9-3.1 3.3z"/>
			<path d="m232.6 30.1v7.9h5.3v2.5h-9.1v-10.4h3.8z"/>
			<path d="m249.8 30.1v2.4h-7.2v1.7h6.7v2.4h-6.7v1.7h7.4v2.4h-11.1v-10.6h10.9z"/>
		<rect x="106.4" y="27.1" width="11.9" height="3.8"/>
		<rect x="106.4" y="19.4" width="11.9" height="3.5"/>
		<rect x="106.4" y="23.2" width="11.9" height="3.7"/>
		<rect x="106.4" y="15.5" width="11.9" height="3.4"/>
		<rect x="106.4" y="31" width="11.9" height="9.7"/>
		<rect x="106.4" y="11.3" width="11.9" height="3.6"/>
		<rect x="106.4" y="3.9" width="11.9" height="3.1"/>
		<rect x="106.4" width="11.9" height="2.8"/>
		<path d="m131.3 31c-0.2-0.3-0.3-0.6-0.5-1-0.3-0.9-0.5-1.9-0.5-2.8h-11.6v3.8h12.6z"/>
		<path d="m130.4 27v-1.1c0-0.7 0-1.7 0.2-2.6h-11.7v3.7h11.5z"/>
		<path d="m139.7 26.1v0.8h11.7v-1c0-0.9 0-1.8-0.2-2.7h-11.8c0.3 1.1 0.3 2.2 0.3 2.9z"/>
		<path d="m130.4 13.1v-1.8h-11.6v3.6h29.6c-1-1.5-2.4-2.7-4.1-3.6h-11.8c-1 0.7-1.7 1.4-2.1 1.8z"/>
		<path d="m118.8 19.4v3.6h11.8c0.2-1.1 0.6-2.2 1.5-3.1l0.5-0.5h-13.8z"/>
		<path d="m151.4 27.1h-11.7c-0.1 1.6-0.5 2.9-1 3.8h12.2c0.2-1.1 0.4-2.4 0.5-3.8z"/>
		<path d="m134.3 10.6h8.2c-1.2-0.4-2.6-0.6-4.1-0.6-1.7 0-3 0.2-4.1 0.6z"/>
		<path d="m138.6 31c-0.2 0.3-0.4 0.5-0.6 0.8-0.8 0.8-1.9 1.3-3.1 1.3-0.4 0-2.4 0-3.6-2h-12.5v20.5h11.7v-12.9c1 0.9 2.9 2.8 7.7 2.8 7.1 0 11.2-4.3 12.6-10.4l-12.2-0.1z"/>
		<path d="m118.8 15.5v3.4h15c0.5-0.2 1-0.2 1.5-0.2s0.9 0.1 1.3 0.2h13.9c-0.4-1.2-0.9-2.4-1.6-3.4h-30.1z"/>
		<path d="m137.6 19.4c1.1 0.8 1.6 2.2 1.9 3.5h11.8c-0.2-1.2-0.4-2.4-0.7-3.5h-13z"/>
</svg>
