<?xml version="1.0" encoding="utf-8"?>
<!-- Generator: Adobe Illustrator 22.1.0, SVG Export Plug-In . SVG Version: 6.00 Build 0)  -->
<svg version="1.1" id="Layer_1" xmlns="http://www.w3.org/2000/svg" xmlns:xlink="http://www.w3.org/1999/xlink" x="0px" y="0px"
	 viewBox="0 0 270 252.2" style="enable-background:new 0 0 270 252.2;" xml:space="preserve">
<path d="M210.6,194.8l-30.9-41.2l30.9-40.8l-6.9-5.3l-29.4,38.8L149,112.6h-41.1L121,45.2c2.1-10.7,5.8-11.6,10.8-11.6
	c5.9,0,10.7,4.8,10.7,10.7h8.7c0-10.7-8.7-19.4-19.4-19.4c-10.9,0-16.9,5.7-19.4,18.6l-13.4,69H71.9v8.7h25.5L82.7,197
	c-2,10.2-6.6,11.6-10.8,11.6c-5.9,0-10.7-4.8-10.7-10.7h-8.7c0,10.7,8.7,19.4,19.4,19.4c7.2,0,16.4-3.2,19.4-18.6l15-77.3h38.5
	l24.2,32.2L136,196.8l6.9,5.3l31.3-41.3l29.4,39.2L210.6,194.8z"/>
</svg>
