<?xml version="1.0" encoding="UTF-8"?>
<svg enable-background="new 0 0 270 252.2" version="1.1" viewBox="0 0 270 252.2" xml:space="preserve" xmlns="http://www.w3.org/2000/svg">
<path d="m210.6 194.8l-30.9-41.2 30.9-40.8-6.9-5.3-29.4 38.8-25.3-33.7h-41.1l13.1-67.4c2.1-10.7 5.8-11.6 10.8-11.6 5.9 0 10.7 4.8 10.7 10.7h8.7c0-10.7-8.7-19.4-19.4-19.4-10.9 0-16.9 5.7-19.4 18.6l-13.4 69h-27.1v8.7h25.5l-14.7 75.8c-2 10.2-6.6 11.6-10.8 11.6-5.9 0-10.7-4.8-10.7-10.7h-8.7c0 10.7 8.7 19.4 19.4 19.4 7.2 0 16.4-3.2 19.4-18.6l15-77.3h38.5l24.2 32.2-33 43.2 6.9 5.3 31.3-41.3 29.4 39.2 7-5.2z"/>
</svg>
