<?xml version="1.0" encoding="utf-8"?>
<!-- Generator: Adobe Illustrator 22.1.0, SVG Export Plug-In . SVG Version: 6.00 Build 0)  -->
<svg version="1.1" id="Layer_1" xmlns="http://www.w3.org/2000/svg" xmlns:xlink="http://www.w3.org/1999/xlink" x="0px" y="0px"
	 viewBox="0 0 270 252.2" style="enable-background:new 0 0 270 252.2;" xml:space="preserve">
<g>
	<path d="M66.1,107.3v56.4h33.5l47.6,32.9V74.4l-47.6,32.9H66.1z M138.6,91v89l-36.2-25H74.8v-39h27.6L138.6,91z"/>
	<path d="M183,74.4l-5.1,7.1c17.3,12.5,27.6,32.7,27.6,54s-10.3,41.5-27.6,54l5.1,7.1c19.6-14.1,31.2-37,31.2-61.1
		C214.2,111.4,202.5,88.6,183,74.4z"/>
	<path d="M167,93.6l-4.9,7.2c11.5,7.8,18.4,20.7,18.4,34.7c0,13.9-6.9,26.9-18.4,34.7l4.9,7.2c14-9.4,22.3-25.1,22.3-41.9
		C189.3,118.7,181,103.1,167,93.6z"/>
</g>
</svg>
